#N canvas 0 19 1267 738 16;
#X declare -lib mrpeach;
#X obj -316 142 osc~;
#X obj -246 141 osc~;
#X obj -299 194 *~;
#X obj -237 97 vline~;
#X floatatom -317 85 5 0 0 0 - - -;
#X obj 176 435 catch~ mix;
#X obj 155 524 dac~;
#X obj -296 248 *~;
#X obj -164 217 line~;
#X msg -159 168 1 \, 0 300;
#X obj -224 -69 bng 15 250 50 0 empty empty empty 17 7 0 10 -262144
-1 -1;
#X obj -222 -32 t b b;
#X obj -225 -118 r squeek;
#X obj 883 141 bng 15 250 50 0 empty empty empty 17 7 0 10 -262144
-1 -1;
#X obj 881 176 s squeek;
#X obj -2 128 line;
#X obj -1 181 osc~;
#X msg -1 81 100 \, 20 200;
#X obj 87 184 line~;
#X msg 91 136 1 \, 0 300;
#X obj 4 232 *~;
#X obj 8 -17 bng 15 250 50 0 empty empty empty 17 7 0 10 -262144 -1
-1;
#X obj 10 20 t b b;
#X obj 7 -66 r bd;
#X obj 263 90 line;
#X obj 352 146 line~;
#X obj 289 259 *~;
#X obj 273 -55 bng 15 250 50 0 empty empty empty 17 7 0 10 -262144
-1 -1;
#X obj 275 -18 t b b;
#X obj 264 143 noise~;
#X obj 281 215 bp~;
#X msg 356 99 1 \, 0 150;
#X msg 265 41 1000 \, 200 200;
#X obj 268 -105 r sd;
#X obj 977 138 bng 15 250 50 0 empty empty empty 17 7 0 10 -262144
-1 -1;
#X obj 976 173 s bd;
#X obj 1038 137 bng 15 250 50 0 empty empty empty 17 7 0 10 -262144
-1 -1;
#X obj 1032 172 s sd;
#X obj 942 1 random 5;
#X obj 940 52 sel 0 1 2;
#X obj 942 -39 metro 100;
#X obj 944 -76 tgl 15 0 empty empty empty 17 7 0 10 -262144 -1 -1 1
1;
#X obj 296 489 delwrite~ delay1 100;
#X obj 295 527 delread~ delay1 10;
#X obj 263 571 *~ 0.2;
#X msg 311 180 5;
#X msg -231 34 700 \, 0 120 0;
#X obj 494 87 line;
#X obj 583 143 line~;
#X obj 520 256 *~;
#X obj 504 -58 bng 15 250 50 0 empty empty empty 17 7 0 10 -262144
-1 -1;
#X obj 506 -21 t b b;
#X obj 495 140 noise~;
#X obj 512 212 bp~;
#X msg 542 177 5;
#X obj 499 -108 r hh;
#X msg 587 96 1 \, 0 5;
#X obj 533 -469 import mrpeach;
#X obj 533 -408 udpreceive 9001;
#X obj 534 -358 unpackOSC;
#X floatatom 851 78 5 0 0 0 - - -;
#X obj 518 354 throw~ mix;
#X obj 521 303 *~;
#X obj 288 348 throw~ mix;
#X obj 291 297 *~;
#X obj 3 332 throw~ mix;
#X obj 6 281 *~;
#X obj -301 365 throw~ mix;
#X obj -298 314 *~;
#X obj -182 289 vsl 15 128 0 1 0 0 empty empty empty 0 -9 0 10 -262144
-1 -1 6165 1;
#X obj -186 253 *;
#X floatatom -132 255 5 0 0 0 - - -;
#X msg 495 38 5000 \, 200 20;
#X obj 535 -299 routeOSC /birth /life /death /empty;
#X obj 125 286 vsl 15 128 0 1 0 0 empty empty empty 0 -9 0 10 -262144
-1 -1 6882 1;
#X obj 121 250 *;
#X floatatom 175 252 5 0 0 0 - - -;
#X obj 408 299 vsl 15 128 0 1 0 0 empty empty empty 0 -9 0 10 -262144
-1 -1 8357 1;
#X obj 404 263 *;
#X floatatom 458 265 5 0 0 0 - - -;
#X obj 650 299 vsl 15 128 0 1 0 0 empty empty empty 0 -9 0 10 -262144
-1 -1 2050 1;
#X obj 646 263 *;
#X floatatom 700 265 5 0 0 0 - - -;
#X obj -205 -306 bng 15 250 50 0 empty empty empty 17 7 0 10 -262144
-1 -1;
#X msg -215 -258 15;
#X msg -144 -255 0.56;
#X msg -65 -255 0.68;
#X obj 449 -167 expr 1 - $f1;
#X obj 445 -220 expr $i1/$f2;
#X obj 658 -173 expr $i1/$f2;
#X msg 14 -257 3.4;
#X connect 0 0 2 0;
#X connect 1 0 2 1;
#X connect 2 0 7 0;
#X connect 3 0 1 0;
#X connect 4 0 0 0;
#X connect 5 0 42 0;
#X connect 5 0 6 0;
#X connect 5 0 6 1;
#X connect 7 0 68 0;
#X connect 8 0 7 1;
#X connect 9 0 8 0;
#X connect 10 0 11 0;
#X connect 11 0 46 0;
#X connect 11 1 9 0;
#X connect 12 0 10 0;
#X connect 13 0 14 0;
#X connect 15 0 16 0;
#X connect 16 0 20 0;
#X connect 17 0 15 0;
#X connect 18 0 20 1;
#X connect 19 0 18 0;
#X connect 20 0 66 0;
#X connect 21 0 22 0;
#X connect 22 0 17 0;
#X connect 22 1 19 0;
#X connect 23 0 21 0;
#X connect 24 0 30 1;
#X connect 25 0 26 1;
#X connect 26 0 64 0;
#X connect 27 0 28 0;
#X connect 27 0 45 0;
#X connect 28 0 32 0;
#X connect 28 1 31 0;
#X connect 29 0 30 0;
#X connect 30 0 26 0;
#X connect 31 0 25 0;
#X connect 32 0 24 0;
#X connect 33 0 27 0;
#X connect 34 0 35 0;
#X connect 36 0 37 0;
#X connect 38 0 39 0;
#X connect 38 0 60 0;
#X connect 39 0 13 0;
#X connect 39 1 34 0;
#X connect 39 2 36 0;
#X connect 39 3 50 0;
#X connect 40 0 38 0;
#X connect 41 0 40 0;
#X connect 43 0 44 0;
#X connect 43 0 6 1;
#X connect 44 0 42 0;
#X connect 45 0 30 2;
#X connect 46 0 3 0;
#X connect 47 0 53 1;
#X connect 48 0 49 1;
#X connect 49 0 62 0;
#X connect 50 0 51 0;
#X connect 50 0 54 0;
#X connect 51 0 72 0;
#X connect 51 1 56 0;
#X connect 52 0 53 0;
#X connect 53 0 49 0;
#X connect 54 0 53 2;
#X connect 55 0 50 0;
#X connect 56 0 48 0;
#X connect 58 0 59 0;
#X connect 59 0 73 0;
#X connect 62 0 61 0;
#X connect 64 0 63 0;
#X connect 66 0 65 0;
#X connect 68 0 67 0;
#X connect 69 0 68 1;
#X connect 70 0 69 0;
#X connect 71 0 70 1;
#X connect 72 0 47 0;
#X connect 73 0 88 0;
#X connect 73 2 89 0;
#X connect 73 3 88 1;
#X connect 73 3 89 1;
#X connect 74 0 66 1;
#X connect 75 0 74 0;
#X connect 76 0 75 1;
#X connect 77 0 64 1;
#X connect 78 0 77 0;
#X connect 79 0 78 1;
#X connect 80 0 62 1;
#X connect 81 0 80 0;
#X connect 82 0 81 1;
#X connect 83 0 90 0;
#X connect 83 0 86 0;
#X connect 83 0 85 0;
#X connect 83 0 84 0;
#X connect 84 0 71 0;
#X connect 85 0 76 0;
#X connect 86 0 79 0;
#X connect 87 0 78 0;
#X connect 87 0 75 0;
#X connect 88 0 70 0;
#X connect 88 0 87 0;
#X connect 89 0 81 0;
#X connect 90 0 82 0;
