#N canvas 640 19 640 738 16;
#X declare -lib mrpeach;
#X obj 57 157 mtof;
#X obj 57 311 *~ 0.5;
#X obj 57 259 phasor~;
#X obj 145 188 * 0.99;
#X obj 145 230 phasor~;
#X obj 140 362 mtof;
#X obj 140 446 pack 0 300;
#X obj 139 485 line~;
#X obj 69 528 vcf~ 220 3;
#X msg 224 561 1 150 \, 0.9 150 150 \, 0 1000 500;
#X obj 136 603 vline~;
#X obj 74 642 *~;
#X obj 73 684 dac~;
#X obj 327 -22 import mrpeach;
#X obj 327 39 udpreceive 9001;
#X obj 328 89 unpackOSC;
#X obj 56 100 t f f b;
#X floatatom 357 324 5 0 0 0 - - -;
#X obj 329 148 routeOSC /birth /life /death /empty;
#X obj 346 270 *;
#X obj 480 246 hsl 128 15 0 127 0 0 empty empty empty -2 -8 0 10 -262144
-1 -1 88 1;
#X floatatom 414 239 5 0 0 0 - - -;
#X obj 477 213 hsl 128 15 0 127 0 0 empty empty empty -2 -8 0 10 -262144
-1 -1 12700 1;
#X floatatom 411 206 5 0 0 0 - - -;
#X obj 346 236 +;
#X obj 142 403 * 3;
#X text 625 209 put them on 127 \, 0.88;
#X connect 0 0 2 0;
#X connect 0 0 3 0;
#X connect 1 0 8 0;
#X connect 2 0 1 0;
#X connect 3 0 4 0;
#X connect 4 0 1 0;
#X connect 5 0 25 0;
#X connect 6 0 7 0;
#X connect 7 0 8 1;
#X connect 8 0 11 0;
#X connect 9 0 10 0;
#X connect 10 0 11 1;
#X connect 11 0 12 1;
#X connect 11 0 12 0;
#X connect 14 0 15 0;
#X connect 15 0 18 0;
#X connect 16 0 0 0;
#X connect 16 1 5 0;
#X connect 16 2 9 0;
#X connect 18 1 24 0;
#X connect 19 0 16 0;
#X connect 19 0 17 0;
#X connect 20 0 21 0;
#X connect 21 0 19 1;
#X connect 22 0 23 0;
#X connect 23 0 24 1;
#X connect 24 0 19 0;
#X connect 25 0 6 0;
